<svg width="500" height="189" viewBox="0 0 500 189" fill="none" xmlns="http://www.w3.org/2000/svg">
<g clip-path="url(#clip0_2_44)">
<path d="M47.002 188.816H36.8721V111.021H18.2334L18.4355 188.614L8.50879 188.816L8.25 182.638C8.10818 179.238 8.05948 161.779 8.30664 111.224L0 111.021V99.6758L8.30664 99.4727L8.3916 50.04C8.43613 22.8746 8.48863 0.502785 8.50488 0.291992C8.52109 0.117765 10.7617 0.0238801 18.4355 0.202148L18.5088 49.4326C18.5493 76.5052 18.5982 98.8797 18.6104 99.1689C18.6306 99.5579 20.7457 99.6758 36.8721 99.6758L37.0742 0.202148L47.002 0V188.816ZM71.8877 0.368164C72.0579 0.14126 79.0802 0.0319711 106.361 0.202148V11.5479L82.2529 11.75L82.4551 99.4727L106.969 99.6758V111.021H82.2529V177.472L106.767 177.674L106.969 188.816H72.123L71.9209 111.224L62.3984 111.021V99.6758H67.0586C71.1463 99.6758 71.7424 99.5906 71.9248 98.9668C72.0342 98.5778 72.01 76.3162 71.8682 49.501C71.7223 22.6865 71.7337 0.575716 71.8877 0.368164ZM122.702 0.291992C122.775 0.117762 124.96 0.0238664 132.273 0.202148L133.396 7.49609C134.011 11.5076 135.624 21.0774 136.981 28.7676C138.339 36.454 139.971 45.7576 140.604 49.4326C141.236 53.1078 143.785 67.6946 146.265 81.8477C148.74 96.0002 151.216 110.128 151.763 113.249C152.306 116.369 153.849 125.397 155.19 133.306C156.532 141.215 157.739 148.144 157.873 148.703C158.1 149.659 158.136 149.671 158.464 148.906C158.654 148.461 159.992 141.167 161.435 132.698C162.877 124.23 165.608 108.549 167.5 97.8525C169.396 87.1557 173.067 66.0942 175.66 51.0537C178.253 36.0091 181.276 18.5086 182.374 12.1553C183.472 5.80196 184.506 0.469983 184.668 0.299805C184.834 0.133685 186.974 0.0400775 193.882 0.202148L194.084 188.816H183.955L183.707 182.638C183.569 179.238 183.569 151.799 183.707 121.657C183.841 91.5154 183.817 66.8555 183.65 66.8555C183.483 66.8616 182.56 71.4667 181.597 77.0869C180.632 82.7151 178.772 93.2418 177.455 100.486C176.142 107.727 173.432 122.864 171.431 134.116C169.429 145.368 166.58 161.507 165.102 169.976C163.627 178.444 162.289 186.102 161.848 188.614H154.615L154.093 185.575C153.805 183.902 151.666 171.689 149.336 158.428C147.006 145.166 144.535 131.037 143.846 127.025L143.795 126.73C143.112 122.754 142.222 117.571 141.787 115.072C141.341 112.511 140.353 107.042 139.591 102.917C138.829 98.7922 137.091 89.1327 135.729 81.4424C134.368 73.7537 133.169 67.3729 133.067 67.2607C132.962 67.1513 132.885 94.4527 132.901 188.816H122.771L122.67 94.7119C122.613 42.9989 122.629 0.540218 122.702 0.291992ZM233.205 0C235.624 2.93081e-06 237.524 0.174319 237.642 0.405273C237.751 0.629029 238.038 2.77196 238.273 5.16602C238.513 7.5608 239.599 18.2739 240.697 28.9707C241.791 39.6677 243.959 60.8187 245.519 75.9727C247.074 91.1264 249.263 112.734 250.377 123.986C251.491 135.238 253.318 153.975 254.44 165.62C255.563 177.264 256.483 187.244 256.483 188.816L246.556 188.614L246.24 184.968C246.07 182.962 244.935 171.386 243.72 159.238C242.508 147.091 240.961 131.366 240.288 124.291C239.612 117.22 239.06 111.34 239.06 111.224C239.06 111.114 236.507 111.021 227.715 111.021L227.496 113.554C227.374 114.949 226.276 126.298 225.053 138.776C223.829 151.256 222.548 164.383 222.208 167.949C221.868 171.515 221.28 177.622 220.219 188.614L215.356 188.72C212.683 188.776 210.39 188.683 210.26 188.517C210.13 188.346 210.527 183.468 211.146 177.674C211.766 171.88 213.383 155.652 214.74 141.612C216.098 127.573 217.342 114.943 217.788 111.013L209.076 111.021V99.6758H213.938C218.655 99.6758 218.805 99.647 218.991 98.7637C219.097 98.2603 219.457 95.0236 219.789 91.5723C220.121 88.1201 221.127 78.0917 222.026 69.2871C222.922 60.4865 224.384 45.4411 225.271 35.8584C226.159 26.2761 227.273 14.4413 227.743 9.55859C228.217 4.67205 228.683 0.526229 228.784 0.339844C228.886 0.153509 230.876 0 233.205 0ZM312.804 188.816L303.282 188.614L301.759 179.295C300.924 174.169 297.78 155.113 294.773 136.953C291.771 118.793 288.671 100.283 287.889 95.8262C287.107 91.3691 285.912 84.3513 285.231 80.2266C284.551 76.1039 283.907 72.6411 283.801 72.5283C283.695 72.4189 283.615 98.537 283.631 188.816H273.501L273.432 94.6797C273.395 42.1797 273.521 0.412906 273.716 0.254883C273.912 0.101033 275.991 0.0239414 282.613 0.202148L282.922 1.82324C283.092 2.7152 283.866 7.45603 284.64 12.3584C285.414 17.2617 288.132 33.6717 290.681 48.8252C293.229 63.9791 296.808 85.1293 298.631 95.8262C300.454 106.522 302.115 115.457 302.317 115.681C302.54 115.924 302.686 93.1481 302.674 0H312.804V188.816ZM344.206 99.4727H363.655L364.06 0.202148H373.784L373.987 188.816H363.857V111.021H344.003V188.816H333.874V111.021H326.175V99.6758H333.874L333.805 50.1094C333.768 22.8501 333.89 0.426613 334.076 0.271484C334.263 0.121566 336.572 1.66489e-06 343.999 0L344.206 99.4727ZM390.547 0.494141C390.656 0.101115 391.884 0.00361841 400.526 0.202148L400.729 188.816H390.6L390.498 94.915C390.441 43.2741 390.462 0.784401 390.547 0.494141ZM414.315 0.258789C414.508 0.100915 416.863 0.0280005 424.433 0.202148L424.636 177.472H448.541V188.816H414.101L414.031 94.6797C413.995 42.3863 414.121 0.41276 414.315 0.258789ZM475.486 177.269L500 177.472V188.816H465.154L465.085 94.6797C465.049 42.9184 465.17 0.445934 465.356 0.271484C465.543 0.121568 467.852 4.65911e-06 475.283 0L475.486 177.269ZM233.562 58.1484C233.314 58.039 232.95 60.0605 232.634 63.3262C232.346 66.2678 231.41 75.5141 230.551 83.873C229.692 92.228 229.113 99.2339 229.263 99.4365C229.417 99.6391 231.208 99.7288 233.25 99.6396C235.288 99.5464 237.111 99.3231 237.302 99.1367C237.488 98.9502 236.856 90.8395 235.896 81.1055C234.935 71.3738 234.108 62.2661 234.06 60.8672C234.011 59.4694 233.788 58.2459 233.562 58.1484Z" fill="white"/>
</g>
<defs>
<clipPath id="clip0_2_44">
<rect width="500" height="189" fill="white"/>
</clipPath>
</defs>
</svg>
